<mxfile host="Electron" modified="2024-05-25T21:41:36.098Z" agent="Mozilla/5.0 (Windows NT 10.0; Win64; x64) AppleWebKit/537.36 (KHTML, like Gecko) draw.io/24.2.5 Chrome/120.0.6099.109 Electron/28.1.0 Safari/537.36" etag="z6376l1SLU3E4QbFJLOn" version="24.2.5" type="device">
  <diagram name="Página-1" id="hR-yR-AIsR12_9KkCl14">
    <mxGraphModel dx="2895" dy="1210" grid="1" gridSize="10" guides="1" tooltips="1" connect="1" arrows="1" fold="1" page="1" pageScale="1" pageWidth="827" pageHeight="1169" math="0" shadow="0">
      <root>
        <mxCell id="0" />
        <mxCell id="1" parent="0" />
        <mxCell id="zWx1QERpwSkKLvx_26p--1" value="Cliente" style="shape=umlActor;verticalLabelPosition=bottom;verticalAlign=top;html=1;outlineConnect=0;hachureGap=4;fontFamily=Architects Daughter;fontSource=https%3A%2F%2Ffonts.googleapis.com%2Fcss%3Ffamily%3DArchitects%2BDaughter;rounded=1;" parent="1" vertex="1">
          <mxGeometry x="-190" y="440" width="30" height="60" as="geometry" />
        </mxCell>
        <mxCell id="zWx1QERpwSkKLvx_26p--2" value="Propietario" style="shape=umlActor;verticalLabelPosition=bottom;verticalAlign=top;html=1;outlineConnect=0;hachureGap=4;fontFamily=Architects Daughter;fontSource=https%3A%2F%2Ffonts.googleapis.com%2Fcss%3Ffamily%3DArchitects%2BDaughter;rounded=1;" parent="1" vertex="1">
          <mxGeometry x="1730" y="430" width="30" height="60" as="geometry" />
        </mxCell>
        <mxCell id="zWx1QERpwSkKLvx_26p--5" value="Crear(Dar de Alta)" style="ellipse;whiteSpace=wrap;html=1;" parent="1" vertex="1">
          <mxGeometry x="1380" y="260" width="120" height="80" as="geometry" />
        </mxCell>
        <mxCell id="zWx1QERpwSkKLvx_26p--6" value="" style="endArrow=classic;html=1;rounded=0;entryX=0.044;entryY=0.683;entryDx=0;entryDy=0;entryPerimeter=0;exitX=1.007;exitY=0.413;exitDx=0;exitDy=0;exitPerimeter=0;" parent="1" target="zWx1QERpwSkKLvx_26p--8" edge="1" source="PzmbusS9w2iCl79DftTL-15">
          <mxGeometry width="50" height="50" relative="1" as="geometry">
            <mxPoint x="100" y="580" as="sourcePoint" />
            <mxPoint x="280" y="560" as="targetPoint" />
            <Array as="points" />
          </mxGeometry>
        </mxCell>
        <mxCell id="zWx1QERpwSkKLvx_26p--7" value="" style="endArrow=classic;html=1;rounded=0;entryX=1;entryY=1;entryDx=0;entryDy=0;exitX=0;exitY=0.5;exitDx=0;exitDy=0;" parent="1" source="PzmbusS9w2iCl79DftTL-26" target="zWx1QERpwSkKLvx_26p--5" edge="1">
          <mxGeometry width="50" height="50" relative="1" as="geometry">
            <mxPoint x="1430" y="480" as="sourcePoint" />
            <mxPoint x="590" y="500" as="targetPoint" />
            <Array as="points" />
          </mxGeometry>
        </mxCell>
        <mxCell id="zWx1QERpwSkKLvx_26p--8" value="Reservar(Dar de Alta)" style="ellipse;whiteSpace=wrap;html=1;" parent="1" vertex="1">
          <mxGeometry x="290" y="260" width="120" height="80" as="geometry" />
        </mxCell>
        <mxCell id="zWx1QERpwSkKLvx_26p--10" value="Añadir El tipo de espacio" style="ellipse;whiteSpace=wrap;html=1;" parent="1" vertex="1">
          <mxGeometry x="1014.75" y="340" width="120" height="80" as="geometry" />
        </mxCell>
        <mxCell id="zWx1QERpwSkKLvx_26p--11" value="Dar de alta un espacio" style="ellipse;whiteSpace=wrap;html=1;" parent="1" vertex="1">
          <mxGeometry x="1140" y="260" width="120" height="80" as="geometry" />
        </mxCell>
        <mxCell id="zWx1QERpwSkKLvx_26p--13" value="Consultar" style="ellipse;whiteSpace=wrap;html=1;" parent="1" vertex="1">
          <mxGeometry x="1150" y="420" width="120" height="80" as="geometry" />
        </mxCell>
        <mxCell id="zWx1QERpwSkKLvx_26p--18" value="" style="endArrow=classic;html=1;rounded=0;entryX=1;entryY=0.5;entryDx=0;entryDy=0;exitX=0;exitY=0.5;exitDx=0;exitDy=0;" parent="1" source="PzmbusS9w2iCl79DftTL-26" target="zWx1QERpwSkKLvx_26p--13" edge="1">
          <mxGeometry width="50" height="50" relative="1" as="geometry">
            <mxPoint x="1430" y="480" as="sourcePoint" />
            <mxPoint x="1280" y="450" as="targetPoint" />
            <Array as="points" />
          </mxGeometry>
        </mxCell>
        <mxCell id="zWx1QERpwSkKLvx_26p--23" value="Cancelar (Dar de Baja)" style="ellipse;whiteSpace=wrap;html=1;" parent="1" vertex="1">
          <mxGeometry x="1120" y="665" width="130" height="80" as="geometry" />
        </mxCell>
        <mxCell id="zWx1QERpwSkKLvx_26p--24" value="" style="endArrow=classic;html=1;rounded=0;entryX=1;entryY=0.5;entryDx=0;entryDy=0;exitX=0;exitY=0.5;exitDx=0;exitDy=0;" parent="1" source="PzmbusS9w2iCl79DftTL-26" target="zWx1QERpwSkKLvx_26p--50" edge="1">
          <mxGeometry width="50" height="50" relative="1" as="geometry">
            <mxPoint x="1430" y="480" as="sourcePoint" />
            <mxPoint x="326" y="1440" as="targetPoint" />
            <Array as="points" />
          </mxGeometry>
        </mxCell>
        <mxCell id="zWx1QERpwSkKLvx_26p--25" value="Dar de Baja un Espacio" style="ellipse;whiteSpace=wrap;html=1;" parent="1" vertex="1">
          <mxGeometry x="870" y="640" width="120" height="80" as="geometry" />
        </mxCell>
        <mxCell id="zWx1QERpwSkKLvx_26p--26" value="Dar de baja una Reserva" style="ellipse;whiteSpace=wrap;html=1;" parent="1" vertex="1">
          <mxGeometry x="870" y="740" width="120" height="80" as="geometry" />
        </mxCell>
        <mxCell id="zWx1QERpwSkKLvx_26p--27" value="Extends" style="endArrow=open;endSize=12;dashed=1;html=1;rounded=0;" parent="1" source="zWx1QERpwSkKLvx_26p--26" target="zWx1QERpwSkKLvx_26p--23" edge="1">
          <mxGeometry width="160" relative="1" as="geometry">
            <mxPoint x="580" y="1505" as="sourcePoint" />
            <mxPoint x="388" y="1410" as="targetPoint" />
          </mxGeometry>
        </mxCell>
        <mxCell id="zWx1QERpwSkKLvx_26p--29" value="Modificar" style="ellipse;whiteSpace=wrap;html=1;" parent="1" vertex="1">
          <mxGeometry x="300" y="585" width="120" height="80" as="geometry" />
        </mxCell>
        <mxCell id="zWx1QERpwSkKLvx_26p--33" value="" style="endArrow=classic;html=1;rounded=0;entryX=0;entryY=0.5;entryDx=0;entryDy=0;" parent="1" target="PzmbusS9w2iCl79DftTL-15" edge="1" source="zWx1QERpwSkKLvx_26p--1">
          <mxGeometry width="50" height="50" relative="1" as="geometry">
            <mxPoint x="-230" y="540" as="sourcePoint" />
            <mxPoint x="-21.960000000000036" y="527.6399999999999" as="targetPoint" />
            <Array as="points" />
          </mxGeometry>
        </mxCell>
        <mxCell id="zWx1QERpwSkKLvx_26p--34" value="Modificar datos del Usuario" style="ellipse;whiteSpace=wrap;html=1;" parent="1" vertex="1">
          <mxGeometry x="640" y="570" width="120" height="80" as="geometry" />
        </mxCell>
        <mxCell id="zWx1QERpwSkKLvx_26p--36" value="Extends" style="endArrow=open;endSize=12;dashed=1;html=1;rounded=0;exitX=0;exitY=0.5;exitDx=0;exitDy=0;entryX=1;entryY=0.5;entryDx=0;entryDy=0;" parent="1" source="zWx1QERpwSkKLvx_26p--34" target="zWx1QERpwSkKLvx_26p--29" edge="1">
          <mxGeometry width="160" relative="1" as="geometry">
            <mxPoint x="600" y="819.1700000000001" as="sourcePoint" />
            <mxPoint x="410" y="819.79" as="targetPoint" />
          </mxGeometry>
        </mxCell>
        <mxCell id="zWx1QERpwSkKLvx_26p--37" value="añadir un extra" style="ellipse;whiteSpace=wrap;html=1;" parent="1" vertex="1">
          <mxGeometry x="894.75" y="260" width="120" height="80" as="geometry" />
        </mxCell>
        <mxCell id="zWx1QERpwSkKLvx_26p--39" value="Reservar un espacio" style="ellipse;whiteSpace=wrap;html=1;" parent="1" vertex="1">
          <mxGeometry x="690" y="260" width="120" height="80" as="geometry" />
        </mxCell>
        <mxCell id="zWx1QERpwSkKLvx_26p--40" value="" style="endArrow=classic;html=1;rounded=0;entryX=0;entryY=0.5;entryDx=0;entryDy=0;exitX=1;exitY=0.5;exitDx=0;exitDy=0;" parent="1" source="zWx1QERpwSkKLvx_26p--39" target="zWx1QERpwSkKLvx_26p--37" edge="1">
          <mxGeometry width="50" height="50" relative="1" as="geometry">
            <mxPoint x="810" y="270" as="sourcePoint" />
            <mxPoint x="1009" y="271" as="targetPoint" />
            <Array as="points" />
          </mxGeometry>
        </mxCell>
        <mxCell id="zWx1QERpwSkKLvx_26p--42" value="Extends" style="endArrow=open;endSize=12;dashed=1;html=1;rounded=0;exitX=0;exitY=0.5;exitDx=0;exitDy=0;entryX=1;entryY=0.5;entryDx=0;entryDy=0;" parent="1" target="zWx1QERpwSkKLvx_26p--8" edge="1">
          <mxGeometry width="160" relative="1" as="geometry">
            <mxPoint x="700" y="300" as="sourcePoint" />
            <mxPoint x="520" y="319.78999999999996" as="targetPoint" />
          </mxGeometry>
        </mxCell>
        <mxCell id="zWx1QERpwSkKLvx_26p--43" value="Consultar" style="ellipse;whiteSpace=wrap;html=1;" parent="1" vertex="1">
          <mxGeometry x="294" y="420" width="120" height="80" as="geometry" />
        </mxCell>
        <mxCell id="zWx1QERpwSkKLvx_26p--44" value="Consultar un espacio" style="ellipse;whiteSpace=wrap;html=1;" parent="1" vertex="1">
          <mxGeometry x="650" y="370" width="120" height="80" as="geometry" />
        </mxCell>
        <mxCell id="zWx1QERpwSkKLvx_26p--45" value="Consultar una reserva" style="ellipse;whiteSpace=wrap;html=1;" parent="1" vertex="1">
          <mxGeometry x="650" y="470" width="120" height="80" as="geometry" />
        </mxCell>
        <mxCell id="zWx1QERpwSkKLvx_26p--46" value="Extends" style="endArrow=open;endSize=12;dashed=1;html=1;rounded=0;exitX=0;exitY=0.5;exitDx=0;exitDy=0;entryX=1;entryY=0.5;entryDx=0;entryDy=0;" parent="1" source="zWx1QERpwSkKLvx_26p--44" target="zWx1QERpwSkKLvx_26p--43" edge="1">
          <mxGeometry width="160" relative="1" as="geometry">
            <mxPoint x="280" y="600" as="sourcePoint" />
            <mxPoint x="440" y="600" as="targetPoint" />
            <Array as="points" />
          </mxGeometry>
        </mxCell>
        <mxCell id="zWx1QERpwSkKLvx_26p--47" value="Extends" style="endArrow=open;endSize=12;dashed=1;html=1;rounded=0;exitX=0;exitY=0.5;exitDx=0;exitDy=0;" parent="1" source="zWx1QERpwSkKLvx_26p--45" target="zWx1QERpwSkKLvx_26p--43" edge="1">
          <mxGeometry width="160" relative="1" as="geometry">
            <mxPoint x="580" y="639" as="sourcePoint" />
            <mxPoint x="410" y="639.3800000000001" as="targetPoint" />
          </mxGeometry>
        </mxCell>
        <mxCell id="zWx1QERpwSkKLvx_26p--49" value="Modifica la reserva&amp;nbsp;" style="ellipse;whiteSpace=wrap;html=1;" parent="1" vertex="1">
          <mxGeometry x="640" y="680" width="120" height="80" as="geometry" />
        </mxCell>
        <mxCell id="zWx1QERpwSkKLvx_26p--50" value="Modificar" style="ellipse;whiteSpace=wrap;html=1;" parent="1" vertex="1">
          <mxGeometry x="1134.75" y="544" width="120" height="80" as="geometry" />
        </mxCell>
        <mxCell id="zWx1QERpwSkKLvx_26p--51" value="Modificar datos del Usuario" style="ellipse;whiteSpace=wrap;html=1;" parent="1" vertex="1">
          <mxGeometry x="580" y="1620" width="120" height="80" as="geometry" />
        </mxCell>
        <mxCell id="zWx1QERpwSkKLvx_26p--55" value="Extends" style="endArrow=open;endSize=12;dashed=1;html=1;rounded=0;exitX=-0.005;exitY=0.352;exitDx=0;exitDy=0;entryX=1;entryY=1;entryDx=0;entryDy=0;exitPerimeter=0;" parent="1" source="zWx1QERpwSkKLvx_26p--49" target="zWx1QERpwSkKLvx_26p--29" edge="1">
          <mxGeometry width="160" relative="1" as="geometry">
            <mxPoint x="590" y="700" as="sourcePoint" />
            <mxPoint x="360" y="690" as="targetPoint" />
          </mxGeometry>
        </mxCell>
        <mxCell id="PzmbusS9w2iCl79DftTL-1" value="" style="endArrow=classic;html=1;rounded=0;entryX=1;entryY=0.5;entryDx=0;entryDy=0;exitX=0;exitY=0.5;exitDx=0;exitDy=0;" edge="1" parent="1" source="zWx1QERpwSkKLvx_26p--11" target="zWx1QERpwSkKLvx_26p--37">
          <mxGeometry width="50" height="50" relative="1" as="geometry">
            <mxPoint x="702" y="952" as="sourcePoint" />
            <mxPoint x="1099.9999999999914" y="300" as="targetPoint" />
            <Array as="points" />
          </mxGeometry>
        </mxCell>
        <mxCell id="PzmbusS9w2iCl79DftTL-4" value="Extends" style="endArrow=open;endSize=12;dashed=1;html=1;rounded=0;exitX=0;exitY=0.5;exitDx=0;exitDy=0;entryX=0;entryY=0.5;entryDx=0;entryDy=0;" edge="1" parent="1" target="zWx1QERpwSkKLvx_26p--5">
          <mxGeometry width="160" relative="1" as="geometry">
            <mxPoint x="1260" y="300" as="sourcePoint" />
            <mxPoint x="1024" y="350" as="targetPoint" />
            <Array as="points" />
          </mxGeometry>
        </mxCell>
        <mxCell id="PzmbusS9w2iCl79DftTL-5" value="" style="endArrow=classic;html=1;rounded=0;exitX=0.198;exitY=0.948;exitDx=0;exitDy=0;exitPerimeter=0;entryX=1;entryY=0;entryDx=0;entryDy=0;" edge="1" parent="1" source="zWx1QERpwSkKLvx_26p--11" target="zWx1QERpwSkKLvx_26p--10">
          <mxGeometry width="50" height="50" relative="1" as="geometry">
            <mxPoint x="760" y="460" as="sourcePoint" />
            <mxPoint x="810" y="410" as="targetPoint" />
          </mxGeometry>
        </mxCell>
        <mxCell id="PzmbusS9w2iCl79DftTL-6" value="Extends" style="endArrow=open;endSize=12;dashed=1;html=1;rounded=0;exitX=1;exitY=0.5;exitDx=0;exitDy=0;entryX=0.04;entryY=0.288;entryDx=0;entryDy=0;entryPerimeter=0;" edge="1" parent="1" source="zWx1QERpwSkKLvx_26p--44" target="zWx1QERpwSkKLvx_26p--13">
          <mxGeometry width="160" relative="1" as="geometry">
            <mxPoint x="1110" y="450" as="sourcePoint" />
            <mxPoint x="900" y="520" as="targetPoint" />
          </mxGeometry>
        </mxCell>
        <mxCell id="PzmbusS9w2iCl79DftTL-8" value="Extends" style="endArrow=open;endSize=12;dashed=1;html=1;rounded=0;exitX=1;exitY=0.5;exitDx=0;exitDy=0;entryX=0.04;entryY=0.676;entryDx=0;entryDy=0;entryPerimeter=0;" edge="1" parent="1" source="zWx1QERpwSkKLvx_26p--45" target="zWx1QERpwSkKLvx_26p--13">
          <mxGeometry width="160" relative="1" as="geometry">
            <mxPoint x="759" y="444.5" as="sourcePoint" />
            <mxPoint x="1140" y="475.5" as="targetPoint" />
          </mxGeometry>
        </mxCell>
        <mxCell id="PzmbusS9w2iCl79DftTL-9" value="Extends" style="endArrow=open;endSize=12;dashed=1;html=1;rounded=0;exitX=1;exitY=0.5;exitDx=0;exitDy=0;entryX=0;entryY=0.5;entryDx=0;entryDy=0;" edge="1" parent="1" source="zWx1QERpwSkKLvx_26p--34" target="zWx1QERpwSkKLvx_26p--50">
          <mxGeometry width="160" relative="1" as="geometry">
            <mxPoint x="760" y="665" as="sourcePoint" />
            <mxPoint x="1145" y="629" as="targetPoint" />
          </mxGeometry>
        </mxCell>
        <mxCell id="PzmbusS9w2iCl79DftTL-10" value="" style="endArrow=classic;html=1;rounded=0;entryX=1;entryY=0.5;entryDx=0;entryDy=0;exitX=0;exitY=0.5;exitDx=0;exitDy=0;" edge="1" parent="1" source="PzmbusS9w2iCl79DftTL-26" target="zWx1QERpwSkKLvx_26p--23">
          <mxGeometry width="50" height="50" relative="1" as="geometry">
            <mxPoint x="1510" y="480" as="sourcePoint" />
            <mxPoint x="1280" y="680" as="targetPoint" />
            <Array as="points" />
          </mxGeometry>
        </mxCell>
        <mxCell id="PzmbusS9w2iCl79DftTL-11" value="Extends" style="endArrow=open;endSize=12;dashed=1;html=1;rounded=0;exitX=1;exitY=0.5;exitDx=0;exitDy=0;entryX=0.041;entryY=0.334;entryDx=0;entryDy=0;entryPerimeter=0;" edge="1" parent="1" source="zWx1QERpwSkKLvx_26p--25" target="zWx1QERpwSkKLvx_26p--23">
          <mxGeometry width="160" relative="1" as="geometry">
            <mxPoint x="995" y="774" as="sourcePoint" />
            <mxPoint x="1136" y="732" as="targetPoint" />
          </mxGeometry>
        </mxCell>
        <mxCell id="PzmbusS9w2iCl79DftTL-15" value="Iniciar sesion" style="ellipse;whiteSpace=wrap;html=1;" vertex="1" parent="1">
          <mxGeometry x="-110" y="430" width="120" height="80" as="geometry" />
        </mxCell>
        <mxCell id="PzmbusS9w2iCl79DftTL-16" value="Registrarse" style="ellipse;whiteSpace=wrap;html=1;" vertex="1" parent="1">
          <mxGeometry x="-110" y="580" width="120" height="80" as="geometry" />
        </mxCell>
        <mxCell id="PzmbusS9w2iCl79DftTL-17" value="Include" style="endArrow=open;endSize=12;dashed=1;html=1;rounded=0;exitX=0.5;exitY=1;exitDx=0;exitDy=0;entryX=0.5;entryY=0;entryDx=0;entryDy=0;" edge="1" parent="1" source="PzmbusS9w2iCl79DftTL-15" target="PzmbusS9w2iCl79DftTL-16">
          <mxGeometry x="-0.1429" y="10" width="160" relative="1" as="geometry">
            <mxPoint x="-50" y="530" as="sourcePoint" />
            <mxPoint x="110" y="530" as="targetPoint" />
            <Array as="points">
              <mxPoint x="-50" y="550" />
            </Array>
            <mxPoint as="offset" />
          </mxGeometry>
        </mxCell>
        <mxCell id="PzmbusS9w2iCl79DftTL-18" value="" style="endArrow=classic;html=1;rounded=0;entryX=0;entryY=0.5;entryDx=0;entryDy=0;exitX=1;exitY=0.5;exitDx=0;exitDy=0;" edge="1" parent="1" source="PzmbusS9w2iCl79DftTL-15" target="zWx1QERpwSkKLvx_26p--43">
          <mxGeometry width="50" height="50" relative="1" as="geometry">
            <mxPoint x="30" y="534" as="sourcePoint" />
            <mxPoint x="314" y="386" as="targetPoint" />
            <Array as="points" />
          </mxGeometry>
        </mxCell>
        <mxCell id="PzmbusS9w2iCl79DftTL-19" value="" style="endArrow=classic;html=1;rounded=0;entryX=0;entryY=0.5;entryDx=0;entryDy=0;exitX=1;exitY=0.5;exitDx=0;exitDy=0;" edge="1" parent="1" source="PzmbusS9w2iCl79DftTL-15" target="zWx1QERpwSkKLvx_26p--29">
          <mxGeometry width="50" height="50" relative="1" as="geometry">
            <mxPoint x="31" y="483" as="sourcePoint" />
            <mxPoint x="315" y="335" as="targetPoint" />
            <Array as="points" />
          </mxGeometry>
        </mxCell>
        <mxCell id="PzmbusS9w2iCl79DftTL-20" value="Cerrar sesion" style="ellipse;whiteSpace=wrap;html=1;" vertex="1" parent="1">
          <mxGeometry x="-110" y="280" width="120" height="80" as="geometry" />
        </mxCell>
        <mxCell id="PzmbusS9w2iCl79DftTL-21" value="Extends" style="endArrow=open;endSize=12;dashed=1;html=1;rounded=0;exitX=0.5;exitY=1;exitDx=0;exitDy=0;entryX=0.5;entryY=0;entryDx=0;entryDy=0;" edge="1" parent="1" source="PzmbusS9w2iCl79DftTL-20" target="PzmbusS9w2iCl79DftTL-15">
          <mxGeometry width="160" relative="1" as="geometry">
            <mxPoint x="-80" y="400" as="sourcePoint" />
            <mxPoint x="-370" y="400" as="targetPoint" />
          </mxGeometry>
        </mxCell>
        <mxCell id="PzmbusS9w2iCl79DftTL-25" value="" style="endArrow=classic;html=1;rounded=0;entryX=1;entryY=0.5;entryDx=0;entryDy=0;exitX=0.5;exitY=0.5;exitDx=0;exitDy=0;exitPerimeter=0;" edge="1" parent="1" target="PzmbusS9w2iCl79DftTL-26" source="zWx1QERpwSkKLvx_26p--2">
          <mxGeometry width="50" height="50" relative="1" as="geometry">
            <mxPoint x="1520" y="460" as="sourcePoint" />
            <mxPoint x="1658.04" y="517.6399999999999" as="targetPoint" />
            <Array as="points" />
          </mxGeometry>
        </mxCell>
        <mxCell id="PzmbusS9w2iCl79DftTL-26" value="Iniciar sesion" style="ellipse;whiteSpace=wrap;html=1;" vertex="1" parent="1">
          <mxGeometry x="1570" y="420" width="120" height="80" as="geometry" />
        </mxCell>
        <mxCell id="PzmbusS9w2iCl79DftTL-27" value="Registrarse" style="ellipse;whiteSpace=wrap;html=1;" vertex="1" parent="1">
          <mxGeometry x="1570" y="570" width="120" height="80" as="geometry" />
        </mxCell>
        <mxCell id="PzmbusS9w2iCl79DftTL-28" value="Include" style="endArrow=open;endSize=12;dashed=1;html=1;rounded=0;exitX=0.5;exitY=1;exitDx=0;exitDy=0;entryX=0.5;entryY=0;entryDx=0;entryDy=0;" edge="1" parent="1" source="PzmbusS9w2iCl79DftTL-26" target="PzmbusS9w2iCl79DftTL-27">
          <mxGeometry x="-0.1429" y="10" width="160" relative="1" as="geometry">
            <mxPoint x="1630" y="520" as="sourcePoint" />
            <mxPoint x="1790" y="520" as="targetPoint" />
            <Array as="points">
              <mxPoint x="1630" y="540" />
            </Array>
            <mxPoint as="offset" />
          </mxGeometry>
        </mxCell>
        <mxCell id="PzmbusS9w2iCl79DftTL-29" value="Cerrar sesion" style="ellipse;whiteSpace=wrap;html=1;" vertex="1" parent="1">
          <mxGeometry x="1570" y="270" width="120" height="80" as="geometry" />
        </mxCell>
        <mxCell id="PzmbusS9w2iCl79DftTL-30" value="Extends" style="endArrow=open;endSize=12;dashed=1;html=1;rounded=0;exitX=0.5;exitY=1;exitDx=0;exitDy=0;entryX=0.5;entryY=0;entryDx=0;entryDy=0;" edge="1" parent="1" source="PzmbusS9w2iCl79DftTL-29" target="PzmbusS9w2iCl79DftTL-26">
          <mxGeometry width="160" relative="1" as="geometry">
            <mxPoint x="1600" y="390" as="sourcePoint" />
            <mxPoint x="1310" y="390" as="targetPoint" />
          </mxGeometry>
        </mxCell>
      </root>
    </mxGraphModel>
  </diagram>
</mxfile>
